<svg width="18" height="17" viewBox="0 0 18 17" fill="none" xmlns="http://www.w3.org/2000/svg">
<g clip-path="url(#clip0)">
<path fill-rule="evenodd" clip-rule="evenodd" d="M0.700384 8.37717C0.700384 3.98577 4.26031 0.425843 8.65171 0.425843C13.0431 0.425843 16.603 3.98577 16.603 8.37716C16.603 10.4799 15.7868 12.392 14.4539 13.8139L16.4779 16.3285L7.84504 16.3285C3.83251 15.9242 0.700384 12.4963 0.700384 8.37717ZM10.2317 5.01367L7.24338 5.01367L7.24338 7.00583L5.25119 7.00583L5.25119 9.99414L7.24338 9.99414L7.24338 11.9863L10.2317 11.9863L10.2317 9.99414L12.2238 9.99414L12.2238 7.00583L10.2317 7.00583L10.2317 5.01367Z" fill="black"/>
</g>
<defs>
<clipPath id="clip0">
<rect width="17" height="17" fill="white" transform="matrix(-1 8.74228e-08 8.74228e-08 1 17.2373 0)"/>
</clipPath>
</defs>
</svg>
