<svg width="21" height="20" viewBox="0 0 21 20" fill="none" xmlns="http://www.w3.org/2000/svg">
<path d="M15.7259 13.0047L12.586 9.86479L15.7031 6.74774C16.0856 6.36526 16.0833 5.7426 15.698 5.35731L15.0003 4.65956C14.615 4.27426 13.9923 4.27199 13.6098 4.65448L10.4928 7.77152L7.35288 4.63162C6.96759 4.24633 6.34494 4.24405 5.96245 4.62654L5.26977 5.31922C4.88729 5.7017 4.88956 6.32436 5.27485 6.70965L8.41475 9.84955L5.29771 12.9666C4.91522 13.3491 4.9175 13.9717 5.30279 14.357L6.00055 15.0548C6.38584 15.4401 7.00849 15.4423 7.39098 15.0599L10.508 11.9428L13.6479 15.0827C14.0332 15.468 14.6559 15.4703 15.0384 15.0878L15.731 14.3951C16.1135 14.0126 16.1112 13.39 15.7259 13.0047Z" fill="#B60E2B"/>
</svg>
