<svg width="17" height="16" viewBox="0 0 17 16" fill="none" xmlns="http://www.w3.org/2000/svg">
<path d="M10.4236 7.34118V5.73404H2.19873V8.33791H10.5678C10.4731 8.01556 10.4236 7.67965 10.4236 7.34118V7.34118ZM4.0691 7.41632H3.30264V6.6556H4.0691V7.41632ZM5.74042 7.41632H4.97396V6.6556H5.74042V7.41632Z" fill="black"/>
<path d="M12.8515 2.36368H2.19971V4.96758H10.5789L12.8515 3.77537V2.36368ZM4.07008 4.03827H3.30361V3.27756H4.07008V4.03827ZM4.97493 4.03827V3.27756H5.74139V4.03824H4.97493V4.03827Z" fill="black"/>
<path d="M15.2774 5.51194L13.2337 4.43982L11.1899 5.51194V7.34118C11.1899 8.60109 12.0257 9.6887 13.2337 10.0173C14.4417 9.68872 15.2774 8.60111 15.2774 7.34118V5.51194ZM13.0077 8.41072L11.871 7.28901L12.4093 6.74344L13.0041 7.33035L14.0562 6.2782L14.5982 6.82017L13.0077 8.41072Z" fill="black"/>
<path d="M12.8506 10.7016C12.1974 10.4845 11.6144 10.0781 11.1861 9.53607C11.078 9.39925 10.9806 9.25483 10.8944 9.10437H2.19873V11.7083H12.8506V10.7016ZM4.0691 10.7867H3.30264V10.026H4.0691V10.7867ZM5.74042 10.7867H4.97396V10.026H5.74042V10.7867Z" fill="black"/>
<path d="M8.04166 12.4747H7.2752V13.1958H2.19727V13.9622H13.1208V13.1958H8.04166V12.4747Z" fill="black"/>
</svg>
