<svg width="14" height="18" viewBox="0 0 14 18" fill="none" xmlns="http://www.w3.org/2000/svg">
<path d="M7.15287 13.5155C6.54838 13.5155 6.19592 14.0936 6.19592 14.8659C6.19592 15.6445 6.55996 16.1929 7.15873 16.1929C7.76364 16.1929 8.10985 15.6149 8.10985 14.8425C8.10985 14.1287 7.76946 13.5155 7.15287 13.5155Z" fill="black"/>
<path d="M2.64924 13.5273C2.44953 13.5273 2.32018 13.5448 2.24402 13.5624V16.1633C2.32018 16.1812 2.4437 16.1812 2.55513 16.1812C3.36512 16.1871 3.89354 15.7387 3.89354 14.7894C3.89972 13.9636 3.41818 13.5273 2.64924 13.5273Z" fill="black"/>
<path d="M13.4671 4.31346C13.4661 4.23091 13.44 4.14937 13.3836 4.08493L9.92855 0.120719C9.92786 0.119608 9.92682 0.119248 9.92581 0.118235C9.90522 0.0951305 9.88157 0.0760783 9.85616 0.0592809C9.84861 0.054379 9.84103 0.0499672 9.83316 0.0454901C9.81084 0.0335293 9.78784 0.0235947 9.76383 0.0163398C9.75733 0.0144444 9.7515 0.0117647 9.74497 0.0100653C9.71858 0.00372548 9.69181 0 9.66435 0H1.17328C0.785886 0 0.470581 0.316764 0.470581 0.705914V17.2941C0.470581 17.6834 0.785886 18 1.17328 18H12.7678C13.1556 18 13.4706 17.6834 13.4706 17.2941V4.353C13.4705 4.33973 13.4685 4.32672 13.4671 4.31346ZM4.18754 16.3697C3.77067 16.7178 3.13658 16.8829 2.3614 16.8829C1.89742 16.8829 1.56871 16.8533 1.34577 16.824V12.9199C1.67448 12.8668 2.10312 12.8372 2.55533 12.8372C3.30666 12.8372 3.79397 12.973 4.17554 13.2618C4.58668 13.5686 4.84502 14.058 4.84502 14.7598C4.84489 15.5206 4.56912 16.0454 4.18754 16.3697ZM7.11156 16.9067C5.93743 16.9067 5.25051 16.0161 5.25051 14.8837C5.25051 13.6923 6.00787 12.8019 7.17607 12.8019C8.39136 12.8019 9.05498 13.7161 9.05498 14.8128C9.05502 16.1164 8.26822 16.9067 7.11156 16.9067ZM11.6678 16.1577C11.9378 16.1577 12.2374 16.0985 12.4134 16.0279L12.5486 16.7297C12.3842 16.8126 12.0144 16.9008 11.5329 16.9008C10.165 16.9008 9.46053 16.0455 9.46053 14.9133C9.46053 13.557 10.4233 12.8021 11.6208 12.8021C12.0847 12.8021 12.4371 12.8963 12.5956 12.9791L12.4134 13.6925C12.2317 13.616 11.979 13.545 11.6621 13.545C10.9519 13.545 10.3996 13.9757 10.3996 14.8602C10.3997 15.6562 10.8694 16.1577 11.6678 16.1577ZM1.17328 11.9853V0.705914H9.313V4.31751C9.313 4.51231 9.47016 4.67045 9.66435 4.67045H12.7678L12.7682 11.9853H1.17328Z" fill="black"/>
<path d="M6.08001 4.87248H8.6368C8.76514 4.87248 8.86944 4.76787 8.86944 4.63872C8.86944 4.50957 8.76514 4.40486 8.6368 4.40486H6.08001C5.95141 4.40486 5.84753 4.50957 5.84753 4.63872C5.84737 4.76787 5.95115 4.87248 6.08001 4.87248Z" fill="black"/>
<path d="M9.88731 6.27525H3.52654C3.39798 6.27525 3.29358 6.37986 3.29358 6.50901C3.29358 6.63826 3.39798 6.7427 3.52654 6.7427H9.88731C10.016 6.7427 10.1203 6.63826 10.1203 6.50901C10.1203 6.37989 10.0162 6.27525 9.88731 6.27525Z" fill="black"/>
<path d="M4.19144 5.34087L4.407 4.46058C4.46215 4.24689 4.49826 4.0664 4.53157 3.86646H4.53697C4.55893 4.06904 4.59211 4.24689 4.63906 4.46058L4.83282 5.34087H5.1979L5.69783 3.46941H5.3523L5.15886 4.31626C5.10912 4.54407 5.06465 4.7576 5.03166 4.96339H5.0259C4.99844 4.76064 4.95967 4.55237 4.91275 4.33022L4.72755 3.4696H4.37099L4.16948 4.31646C4.11655 4.55241 4.06372 4.77479 4.03369 4.97169H4.02855C3.99817 4.78574 3.95376 4.54679 3.90665 4.31914L3.72971 3.4696H3.36755L3.82373 5.34106H4.19144V5.34087V5.34087Z" fill="black"/>
<path d="M9.88731 8.13229H3.52654C3.39798 8.13229 3.29358 8.2369 3.29358 8.36615C3.29358 8.4953 3.39798 8.59991 3.52654 8.59991H9.88731C10.016 8.59991 10.1203 8.4953 10.1203 8.36615C10.1203 8.2369 10.0162 8.13229 9.88731 8.13229Z" fill="black"/>
<path d="M9.88731 10.0336H3.52654C3.39798 10.0336 3.29358 10.1384 3.29358 10.2676C3.29358 10.3967 3.39798 10.5013 3.52654 10.5013H9.88731C10.016 10.5013 10.1203 10.3967 10.1203 10.2676C10.1203 10.1384 10.0162 10.0336 9.88731 10.0336Z" fill="black"/>
</svg>
