<svg width="118" height="38" viewBox="0 0 118 38" fill="none" xmlns="http://www.w3.org/2000/svg">
<path d="M18.873 28.3243L17.5726 23.5778L18.6454 23.2527L20.8886 27.349L18.873 28.3243Z" fill="#347CE8"/>
<path d="M28.6261 23.0901C26.7615 22.3046 23.1186 20.7994 21.5063 20.1966L21.7989 19.3188C23.6303 19.8312 27.5401 20.8771 29.2438 21.3995L28.6261 23.0901Z" fill="white"/>
<path d="M15.484 13.3532C15.7787 11.9847 16.0212 9.77979 15.9588 7.86292H17.1294C17.0255 9.69899 17.3438 12.2551 17.6504 13.3532H15.484Z" fill="#347CE8"/>
<path d="M11.4743 18.1495C10.3981 19.0301 6.76997 20.5383 5.09045 21.1824L6.0254 23.1169C6.61241 22.3342 9.99857 20.1796 11.5966 19.3236L11.4743 18.1495Z" fill="white"/>
<circle cx="16.5672" cy="4.45976" r="3.92442" fill="#65A0F8"/>
<circle cx="16.5671" cy="18.5292" r="5.64173" fill="white"/>
<circle cx="21.7236" cy="32.4735" r="5.4297" fill="#3574D1"/>
<circle cx="32.4173" cy="23.2526" r="3.79887" fill="white"/>
<circle cx="10.9254" cy="29.5955" r="3.25917" fill="white"/>
<circle cx="3.4941" cy="22.5507" r="2.91744" fill="white"/>
<circle cx="8.57488" cy="13.3533" r="2.35057" fill="#528ADD"/>
<circle cx="25.9842" cy="12.9586" r="2.35057" fill="white"/>
<path d="M66.9548 8.38428V31.4547H60.9425V22.1566H52.1338V31.4547H46.1215V8.38428H52.1338V17.5076H60.9425V8.38428H66.9548Z" fill="white"/>
<path d="M92.2689 22.0518C92.2689 25.2909 91.4067 27.7262 89.6823 29.3574C87.9578 30.9886 85.3828 31.8043 81.9572 31.8043C78.5549 31.8043 75.9798 30.9886 74.2321 29.3574C72.5076 27.7262 71.6454 25.2909 71.6454 22.0518V8.38428H77.6926V22.1566C77.6926 23.8112 78.0422 25.0463 78.7413 25.8619C79.4404 26.6775 80.5123 27.0853 81.9572 27.0853C84.8468 27.0853 86.2916 25.4424 86.2916 22.1566V8.38428H92.2689V22.0518Z" fill="white"/>
<path d="M96.9841 8.38428H108.205C113.751 8.40758 116.524 10.4816 116.524 14.6063C116.524 15.9579 116.128 17.0998 115.336 18.0319C114.543 18.9641 113.378 19.5466 111.84 19.7797V19.8146C113.564 20.0477 114.869 20.6536 115.755 21.6323C116.664 22.5877 117.118 23.7879 117.118 25.2327C117.118 27.2368 116.408 28.7748 114.986 29.8468C113.564 30.9187 111.479 31.4547 108.729 31.4547H96.9841V8.38428ZM107.121 17.8222C109.288 17.8222 110.372 16.9833 110.372 15.3054C110.372 13.6276 109.288 12.7886 107.121 12.7886H102.787V17.8222H107.121ZM107.715 27.2251C108.787 27.2251 109.591 27.0038 110.127 26.561C110.687 26.1182 110.966 25.4774 110.966 24.6385C110.966 23.8228 110.687 23.2053 110.127 22.7858C109.591 22.3431 108.787 22.1217 107.715 22.1217H102.787V27.2251H107.715Z" fill="white"/>
</svg>
