<svg width="19" height="19" viewBox="0 0 19 19" fill="none" xmlns="http://www.w3.org/2000/svg">
<path d="M8.22498 6.06067L10.5753 6.06067L10.5753 8.42478L12.9395 8.42478L12.9395 10.7751L10.5753 10.7751L10.5753 13.1393L8.22498 13.1393L8.22498 10.7751L5.8608 10.7751L5.8608 8.42478L8.22498 8.42478L8.22498 6.06067Z" fill="#2158AD"/>
<path fill-rule="evenodd" clip-rule="evenodd" d="M9.3999 0.600007C11.8031 0.600007 14.0645 1.53669 15.7639 3.23602C17.4632 4.93536 18.3999 7.19679 18.3999 9.60001C18.3999 10.8836 18.1347 12.1254 17.6114 13.2885C17.2203 14.1578 16.701 14.9496 16.0632 15.6503L18.2941 18.6L9.3999 18.6C6.99665 18.6 4.73525 17.6633 3.03592 15.964C1.33662 14.2646 0.399904 12.0032 0.399904 9.60001C0.399904 7.19679 1.33662 4.93536 3.03592 3.23602C4.73526 1.53669 6.99665 0.600007 9.3999 0.600007ZM16.5836 9.60001C16.5836 5.63924 13.3607 2.41628 9.3999 2.41628C5.43913 2.41628 2.21618 5.63924 2.21618 9.60001C2.21618 13.5608 5.43914 16.7837 9.3999 16.7837L14.6432 16.7837L13.6401 15.4574L14.2497 14.8992C15.7328 13.541 16.5836 11.609 16.5836 9.60001Z" fill="#2158AD"/>
</svg>
