<svg width="10" height="9" viewBox="0 0 10 9" fill="none" xmlns="http://www.w3.org/2000/svg">
<path d="M8.85714 3.53571H5.96429V0.642857C5.96429 0.287879 5.67641 0 5.32143 0H4.67857C4.32359 0 4.03571 0.287879 4.03571 0.642857V3.53571H1.14286C0.787879 3.53571 0.5 3.82359 0.5 4.17857V4.82143C0.5 5.17641 0.787879 5.46429 1.14286 5.46429H4.03571V8.35714C4.03571 8.71212 4.32359 9 4.67857 9H5.32143C5.67641 9 5.96429 8.71212 5.96429 8.35714V5.46429H8.85714C9.21212 5.46429 9.5 5.17641 9.5 4.82143V4.17857C9.5 3.82359 9.21212 3.53571 8.85714 3.53571Z" fill="white"/>
</svg>
