<svg width="15" height="15" viewBox="0 0 15 15" fill="none" xmlns="http://www.w3.org/2000/svg">
<path d="M13.4209 6.02692H8.98036V1.61875C8.98036 1.07783 8.53847 0.63916 7.99359 0.63916H7.00681C6.46193 0.63916 6.02004 1.07783 6.02004 1.61875V6.02692H1.57955C1.03466 6.02692 0.592773 6.46559 0.592773 7.00651V7.9861C0.592773 8.52702 1.03466 8.96569 1.57955 8.96569H6.02004V13.3739C6.02004 13.9148 6.46193 14.3534 7.00681 14.3534H7.99359C8.53847 14.3534 8.98036 13.9148 8.98036 13.3739V8.96569H13.4209C13.9657 8.96569 14.4076 8.52702 14.4076 7.9861V7.00651C14.4076 6.46559 13.9657 6.02692 13.4209 6.02692Z" fill="white"/>
</svg>
