<svg width="26" height="24" viewBox="0 0 26 24" fill="none" xmlns="http://www.w3.org/2000/svg">
<path fill-rule="evenodd" clip-rule="evenodd" d="M13.8532 24C20.4476 24 25.7935 18.6274 25.7935 12C25.7935 5.37258 20.4476 0 13.8532 0C7.25872 0 1.91286 5.37258 1.91286 12C1.91286 14.0852 2.44209 16.0462 3.37288 17.7547C3.00935 19.1913 2.60497 20.3153 0.793457 22.5C2.4538 23.3343 5.01891 23.9414 7.84165 22.3705C9.60721 23.4064 11.6612 24 13.8532 24Z" fill="#005CA9"/>
<path d="M12.2473 14.27C12.174 13.742 12.1887 13.258 12.2913 12.818C12.4087 12.378 12.57 11.9746 12.7753 11.608C12.9953 11.2413 13.2373 10.904 13.5013 10.596C13.78 10.2733 14.0367 9.9653 14.2713 9.67197C14.5207 9.36397 14.726 9.06331 14.8873 8.76997C15.0487 8.47664 15.1293 8.1613 15.1293 7.82397C15.1293 7.29597 14.968 6.87064 14.6453 6.54797C14.3373 6.22531 13.9047 6.06397 13.3473 6.06397C12.8927 6.06397 12.482 6.16664 12.1153 6.37197C11.7487 6.57731 11.404 6.85597 11.0813 7.20797L9.67334 5.90997C10.1573 5.35264 10.7293 4.89797 11.3893 4.54597C12.064 4.17931 12.8193 3.99597 13.6553 3.99597C14.2273 3.99597 14.7553 4.07664 15.2393 4.23797C15.7233 4.38464 16.134 4.61197 16.4713 4.91997C16.8233 5.22797 17.0947 5.60931 17.2853 6.06397C17.4907 6.51864 17.5933 7.04664 17.5933 7.64797C17.5933 8.1173 17.5053 8.54264 17.3293 8.92397C17.168 9.29064 16.9627 9.64264 16.7133 9.97997C16.464 10.3173 16.1927 10.64 15.8993 10.948C15.6207 11.256 15.364 11.5786 15.1293 11.916C14.9093 12.2533 14.726 12.6126 14.5793 12.994C14.4473 13.3753 14.4107 13.8006 14.4693 14.27H12.2473ZM13.3693 19.264C12.9 19.264 12.5113 19.1026 12.2033 18.78C11.8953 18.4573 11.7413 18.0466 11.7413 17.548C11.7413 17.0493 11.8953 16.6386 12.2033 16.316C12.5113 15.9933 12.9 15.832 13.3693 15.832C13.8387 15.832 14.2273 15.9933 14.5353 16.316C14.858 16.6386 15.0193 17.0493 15.0193 17.548C15.0193 18.0466 14.858 18.4573 14.5353 18.78C14.2273 19.1026 13.8387 19.264 13.3693 19.264Z" fill="white"/>
</svg>
